<svg xmlns="http://www.w3.org/2000/svg" xmlns:xlink="http://www.w3.org/1999/xlink" viewBox="0 0 170.24 170.25"><defs><style>.cls-1{fill:url(#radial-gradient);}.cls-2{fill:#fff;}</style><radialGradient id="radial-gradient" cx="131.2" cy="48.06" r="126.38" gradientUnits="userSpaceOnUse"><stop offset="0" stop-color="#fff"/><stop offset="0.02" stop-color="#f7fcfe"/><stop offset="0.06" stop-color="#e1f2f9"/><stop offset="0.1" stop-color="#bde3f3"/><stop offset="0.14" stop-color="#8bceea"/><stop offset="0.2" stop-color="#4bb3de"/><stop offset="0.25" stop-color="#0093d0"/><stop offset="0.61" stop-color="#1062ad"/><stop offset="0.89" stop-color="#1c3f94"/></radialGradient></defs><g id="Layer_2" data-name="Layer 2"><g id="Layer_2-2" data-name="Layer 2"><rect class="cls-1" x="0.2" width="170.04" height="170.03"/><path class="cls-2" d="M1.21,126l15.62-9.27v-4.5L.2,121.6C2,121.74-.38,125.71,1.21,126Zm-1,43.08,16.63-15.29v-5.42L0,163.23C.63,164-.32,168.28.2,169.08ZM76.64,120l-6,8.08c0,.17,0,.34,0,.51a37.74,37.74,0,0,1-.52,6.36c.15-.21.33-.4.49-.61l7-9.93A13,13,0,0,1,76.64,120Zm93.6-108.5L138.18,40.94l-.09-.07a8.88,8.88,0,0,0-.79-.71L167.13,0H164.4L136.35,39.47a8.49,8.49,0,0,0-1-.58L153.14,0h-2.26L134.26,38.41c-.37-.14-.73-.26-1.11-.37l8.5-38h-2L132,37.8a11.11,11.11,0,0,0-1.16-.11L131.22,0h-2l.39,37.69a11.11,11.11,0,0,0-1.16.11L120.87,0h-2l8.5,38c-.38.11-.75.23-1.11.37L109.61,0h-2.26l17.8,38.89a9.36,9.36,0,0,0-1,.58L96.1,0H93.36l29.82,40.16c-.3.25-.59.5-.87.77L77.79,0H74.1l47.42,41.82c-.15.18-.28.39-.42.58s-.15.2-.21.3l0,.06L48.53,0h-6l77.7,43.78c-.07.14-.12.29-.18.44s-.16.34-.23.51a.67.67,0,0,0-.06.12L.2,4.61v4L119.41,46l-.06.34c0,.19-.09.38-.13.58s0,.15,0,.22L.2,33.35v3.7L119.06,48.29a5.62,5.62,0,0,0,0,1.16L.2,60.69v3.7l119-13.76c0,.07,0,.15,0,.23s.08.38.13.57l.06.33L.2,89.13v4L119.78,52.89l.06.14.21.47c.07.15.12.3.2.46L36.46,101.17h1.85c1.54,0,3,.07,4.42.18L120.84,55a.09.09,0,0,1,0,.05l.24.32a6,6,0,0,0,.41.58L62,108.51a23,23,0,0,1,2,1.93L122.31,56.8l0,0c.27.27.55.51.84.75L84.91,108.87a21.79,21.79,0,0,1,4.3-1l34.93-49.59c.33.21.66.4,1,.58l-22.73,49.65,1.52.33v2l22.29-51.49c.36.13.73.26,1.11.36l-9.17,41.47h2.2l8.12-41.23a11.11,11.11,0,0,0,1.16.12l-.43,41.11h2l-.43-41.11a11.4,11.4,0,0,0,1.16-.12s3.9,19,8.43,41.23h2L133.15,59.7c.37-.1.74-.23,1.1-.36l18.82,43.48a16.84,16.84,0,0,1,3.07,1.5L135.33,58.86c.35-.18.68-.37,1-.58L170.24,106v-4L137.3,57.58a10.42,10.42,0,0,0,.87-.77l32.07,29.48V83.51L139,55.92c.15-.18.29-.39.43-.59l.21-.28s0,0,0-.07l30.6,18.09v-2.2L140.23,54c.07-.14.13-.3.2-.45s.15-.31.21-.47l.07-.14,29.53,9.93V60.91l-29.17-9.14c0-.11.05-.23.08-.35s.08-.37.11-.56,0-.16.05-.23L170.24,54v-1.8l-28.81-2.72c0-.2,0-.39,0-.59s0-.38,0-.58l28.81-2.73V43.77l-28.93,3.34c0-.08,0-.16-.05-.25s-.08-.38-.12-.56,0-.22-.07-.32l29.17-9.15V34.92l-29.53,9.93-.07-.14a4.1,4.1,0,0,0-.21-.48c-.07-.15-.12-.3-.19-.45l30-16.89V24.67L139.65,42.76l-.06-.07c-.06-.1-.13-.18-.19-.27s-.28-.41-.44-.6l31.28-27.58Zm-18.37,146.4c1.27,6.43,2.13,10.9,2.32,12.17,5.49-.45,2-.36,3.62,0l-3-13.23A24.22,24.22,0,0,1,151.87,157.86ZM39.12,170.24c.17,0,.33,0,.5,0,.89,0,5-.26,5.86-.24l10.58-15a33.84,33.84,0,0,1-7.77,3Zm121.42-50.17,9.7,22.41v-7.39l-8.59-18.74A11.75,11.75,0,0,1,160.54,120.07ZM74.25,170h4.07l4.48-10.35a24.2,24.2,0,0,1-3.43-.82Zm54.36-10.79L128.5,170H132l-.11-10.79Zm-25.72,11h3.9l2.16-11h-3.63Z"/><path class="cls-2" d="M94.77,147.56l-9.13-11a8.15,8.15,0,0,0-3.6,6.27,6.24,6.24,0,0,0,6.5,6.62,11.06,11.06,0,0,0,6.23-1.92m53-6.4c0-4.57-2.33-7.56-8.4-7.56h-5v16.27h3.34C143.9,149.87,147.81,146.8,147.81,141.16ZM134.4,124.23h3.08c6.42,0,8.67-3.65,8.67-7.47,0-4.88-4.24-6.2-6.84-6.2H134.4Zm-81.84,4.4c0-10-6.11-16.59-14.25-16.59h-3.9v36.34h3.32C47.81,148.38,52.56,140.32,52.56,128.63Zm64.26,25.29V134.68c-.35,4.78-2.08,10-5.13,13.25Zm0-52.75h25.92c11.56,0,19.06,4.74,19.06,13.19,0,9-7.57,11.7-11.24,13.35v.17c6.75.34,14.48,5.56,14.48,13.61,0,10.62-7.73,17.75-24.23,17.75H104.58l-2.79-3.3A23.94,23.94,0,0,1,88,160.13c-12.06,0-20.73-6.43-20.62-16.66-5.45,10.81-17.07,15.77-29.74,15.77H16.83V101.17H38.31c23.33,0,32.32,13.35,32.32,27.38a37.74,37.74,0,0,1-.52,6.36,25.47,25.47,0,0,1,9-7.63,14.39,14.39,0,0,1-2.46-7.81c0-4.07,2.64-11.47,15.79-11.87a41.07,41.07,0,0,1,11.55,1.24v10.72a11.87,11.87,0,0,0-6.13-1.43c-2.39,0-4,.53-5.07,2.29-1.27,2.15.29,5.08,2.48,7.73l8.69,10.43a13.71,13.71,0,0,0,1.55-6.88h11.36Z"/></g></g></svg>