<svg xmlns="http://www.w3.org/2000/svg" viewBox="0 0 845.16 664.34"><defs><style>.cls-1{fill:#147abf;}.cls-2{fill:#54b949;}.cls-3{fill:#1b7dc1;}.cls-4{fill:#187cc0;}.cls-5{fill:#177bc0;}.cls-6{fill:#187bc0;}.cls-7{fill:#197cc1;}.cls-8{fill:#1a7cc1;}</style></defs><g id="Layer_2" data-name="Layer 2"><g id="Layer_2-2" data-name="Layer 2"><path class="cls-1" d="M302.81,664.34c-6.13-1-12.24-2-18.37-2.85-68.34-9.5-128.31-37.07-179-83.94C50.77,527,16.44,464.7,4.66,391.24c-15.39-96,7.34-183,68.18-259C123.44,69.14,189.56,29.87,269.22,15.89c98.58-17.3,187.57,6.14,266,68.54,7.14,5.67,13.79,12,20.82,18.08l-81.82,77.23c-2.52-2.14-5.36-4.61-8.26-7-33.57-27.77-72-44.29-115.35-48.68-100.84-10.2-194.21,47.78-226,143.94-28.24,85.42-8.53,161.54,55.3,225,34.1,33.89,76.38,52.62,124.26,57.66,66.19,7,123.85-12.78,172.34-58,36.55-34.09,57.61-76.73,64.76-126.1A207.35,207.35,0,0,0,540,301c-.36-2.07.3-5.18,1.7-6.58q42.59-42.42,85.5-84.53a17.41,17.41,0,0,1,2-1.31c3.71,10.13,7.7,19.88,10.88,29.88,9.47,29.76,15,60.2,15.39,91.52,1.17,98.19-34,181.18-105.67,248-48.3,45-105.89,72.14-171.23,82.43-8.69,1.36-17.49,2-26.23,3.06a14.63,14.63,0,0,0-2.66.84ZM577.35,468.91c30-58,39-118.76,27.89-183.08l-11.74,2.39c10.56,61.67,1.76,119.81-26.72,175ZM235.66,557.68,215.55,621.6l13.08,4c2.94-9.11,5.71-17.73,8.46-26.27,12.21,2.42,13.67,4.73,10.5,16-.8,2.88-1.81,5.7-2.52,8.6-1.47,6-1,6.73,4.77,8.45l7.48,2.22c1.3-5.81,2.4-11.36,3.81-16.83,1.69-6.55,3.32-13-3.94-17.89,8.52-1.45,13-6.15,14.65-14.88,1.53-7.82-.33-14.05-7-17C255.54,563.93,245.65,561.14,235.66,557.68ZM490,513.47l49.48,45c5.76-6.43,11.58-12.33,16.71-18.78,5.86-7.38,6.06-14.69.69-22.55a80,80,0,0,0-27.28-25c-8.41-4.69-15.88-3.64-22.75,3.14C501.1,500.9,495.86,507.1,490,513.47ZM90.68,258.55c3-.64,5.89-.79,8.4-1.91,14.09-6.26,16.89-28.25,4.55-37.33a89.84,89.84,0,0,0-34.45-15c-10.69-2.33-17.56,1.28-22.41,10.46-5.4,10.23-5.25,19.09,1.7,25.2C60.51,250.52,75.2,255.55,90.68,258.55ZM448.19,91.9c-9.78.43-15.79,5.36-18.41,14.83-2.34,8.42.37,15.19,8.19,20.54,9.38,6.41,18.76,7.55,24.84,1.94,3.52-3.26,6.86-7.66,8.09-12.15s-.28-9.69-.6-14.66c7.49-.69,11.8-4.52,13.95-13.25,1.78-7.24-1.57-13.66-9.6-18.44-8.86-5.27-16.45-5.46-22.26-.55C445.71,75.81,444.32,82.67,448.19,91.9Zm-328.4,98.23c4.25,3.9,8.59,5.43,12.87,4.69,13.52-2.32,22-20.32,14.25-31.53a77.55,77.55,0,0,0-31.85-26.46c-8.46-3.87-15.79-1.36-22,6.32-6.7,8.27-8.07,16.47-2.25,23.65a57,57,0,0,0,15.44,12.9c6.34,3.7,13.31,1.69,17.69-4.34,2.46-3.38,3.65-7.69,6.36-13.69,2.24,3.07,4.24,5.94,6.37,8.71,2.51,3.28,4,6.63,1.09,10.4s-6.13,2-9.29.28c-.23-.12-.63.06-1.33.15C124.79,184.06,122.29,187.11,119.79,190.13Zm-69.37,72C42.82,260,37.51,261,33.29,265,27,270.89,24,284,27.78,291.81a19.15,19.15,0,0,0,6.75,7.63c11.38,7,21.75,4,29.4-7.73A72.8,72.8,0,0,1,70.8,282c3.12-3.42,7.21-3.11,11-.91,3.56,2.08,4,5.51,3,9.18-1.24,4.38-4.32,6.07-8.72,5.63-1.46-.14-2.91-.3-4.67-.48-.86,4.44-1.69,8.7-2.5,12.91,14.47,3.78,22-.62,25.57-14.41,4-15.37-1.13-25.29-14.72-28.49-8.07-1.91-14.38.58-19.18,7.2-3.21,4.45-6.18,9.09-9.65,13.32-2.94,3.6-7.4,3.88-11.26,1.3-3.41-2.29-3.47-5.68-2.18-8.9,1.85-4.63,6.12-4.27,10.5-3.83C48.76,270.37,49.56,266.37,50.42,262.13ZM340.71,78.63l1.07.16c0,2.66-.21,5.34,0,8,.5,5.16,2.4,9.66,7,12.63,12.7,8.26,28,3.14,31.76-11.4a170.44,170.44,0,0,0,4.58-30.43c.49-7.07-.57-14.48-7.72-18.86C364.65,30.89,350,36,346,50.33,343.44,59.54,342.42,69.18,340.71,78.63ZM167.92,88.79a20.19,20.19,0,0,0,.53,3.83c4.2,13.66,10.78,26.05,20.67,36.42,6.21,6.51,13,6.93,21.77,2.2s12.79-11.47,10.67-19.8a85.94,85.94,0,0,0-21.14-37.8c-5.41-5.76-12.17-6.18-19.22-2.91C173.71,74.2,168,79,167.92,88.79Zm-43.15,30.26c.42,1.58.71,4.49,1.92,6.94a89.53,89.53,0,0,0,26.13,31.54c7.43,5.7,14.84,4.78,22.68-1.65s10.23-13.73,6.27-22a87.83,87.83,0,0,0-27.16-32.56c-5.36-4-11.44-4.42-17.31-.87C130.72,104.45,125.14,109.27,124.77,119.05ZM387.59,91c-.12,9.71,1.14,13.26,4.93,16.58,11.26,9.85,26.86,7.43,32.78-6.2,4.64-10.66,7.78-22.11,10.37-33.49,2.15-9.47-2.29-15.62-11.61-19.24-10.08-3.92-18.14-2.2-23.39,5.78C392.88,66.32,389.3,79.71,387.59,91Zm96.09,509.27,31.95-21.57-6.38-9.29-20.54,13.62L479,568.71l18.45-12.64L491,546.83l-18.46,12.33-8.47-12.56,19.64-13.36L477.18,524l-31,21Zm-328.76-11.1L187.86,609l5.66-9.75-20.91-12.75,9-14.69,19.15,11.29c2-3.34,3.76-6.28,5.76-9.61l-19-11.62c2.75-4.54,5.22-8.59,7.81-12.85l20.39,12.08,5.65-9.76-31.93-19.21c-5.78,9.5-11.4,18.67-17,27.88C166.68,569.61,160.9,579.26,154.92,589.21ZM139.06,543c-3.73,2.82-6.52,5.18-9.57,7.15s-6.54,1.92-8.4-1.17c-1.31-2.17-2.2-6.12-1.09-8a87.13,87.13,0,0,1,26.82-27.63,6.17,6.17,0,0,1,8.57,1.09c2.51,2.72,2.42,5.73.53,8.68-1.39,2.18-3,4.18-4.22,5.76L161,539c1.7-2,3.28-3.67,4.63-5.51,6.19-8.38,5.89-16-.86-24-7.91-9.32-16.92-12.08-25.85-6.88a82.27,82.27,0,0,0-29.76,30.18c-4,6.91-3.16,14,1.79,20.5,10.66,14,26.17,13.65,36.68-.7ZM305.61,55.88c.15-2.84.13-5,.42-7.13.53-3.8,2.9-6.13,6.67-6.16,3.93,0,5.81,2.5,6.27,6.36.75,6.14-.44,11.51-5.16,15.89-2.8,2.6-5.45,5.38-8,8.21-7,7.72-12,16.25-10.75,27.55l40.76-1.91c-.22-3.76-.4-7-.59-10.3-4.44,0-8.41-.1-12.38,0s-7.84.49-13.43.86c3-4,4.94-6.92,7.23-9.62,4.39-5.18,9.79-9.72,13.27-15.43,8.3-13.63,1.44-29.35-13.12-30.63-15.35-1.36-27.12,6-23.43,22.28Zm83.28,580.64L402.1,633l-7-27.8,21.53-5.79c-1.14-4-2.1-7.39-3.05-10.73L392.08,594c-1.33-5.2-2.49-9.77-3.73-14.61l23-6.08c-1.07-3.88-2-7.31-3-10.91l-36.23,9.5C377.74,593.7,383.25,614.85,388.89,636.52ZM97.69,478.34a267.81,267.81,0,0,1-37.2-102.41l-11.82,1.94A277.84,277.84,0,0,0,87.45,484.59ZM311.36,641.6c1.49-18.72,2.93-36.81,4.37-54.87l14.51.86c.22-3.83.42-7.23.64-11.14l-42.71-3.25v11.09l13.72,1.49c-1.4,18.37-2.78,36.45-4.19,55ZM258.42,109.39c-7.23-21-14.32-41.61-21.38-62.12-8.33,1.67-8.19,1.71-10.21,8.52A11.16,11.16,0,0,1,223.35,61C220.94,63,218,64.28,215.07,66c.87,2.52,1.77,5.12,2.78,8l12.4-4c5.06,14.61,10,28.94,15.16,43.76ZM89.83,319l-66.71-3.09c-.34,4.74-.64,9-1,13.69l66.79,3.11C89.24,328,89.52,323.75,89.83,319Zm253,256c2.07,22.54,4.06,44.29,6.11,66.52L362.59,640c-2-22.3-4-44-6.06-66.14Zm116.85,37.49c-9.21-20.49-18.23-40.55-27.36-60.88l-12.59,5.65,27.4,60.88ZM276.53,104.73l12.39-2.36-2.81-14.49L273.7,90.31C274.68,95.3,275.53,99.65,276.53,104.73Zm-6.4-33.18L282.58,69c-1-5.1-2-9.59-2.92-14.32l-12.17,2.25C268.36,61.72,269.17,66.21,270.13,71.55Z"/><path class="cls-2" d="M845.16,20.31c-4.75,3.7-9.08,8.19-14.32,11-44,23.25-84.62,51.43-123.62,82.07a1713.11,1713.11,0,0,0-162,145C487.61,316.9,435.15,379.8,386.79,446.17c-10.37,14.23-22.14,27.45-32.42,41.75-10,13.9-23.17,17.78-39.25,15.54a269.71,269.71,0,0,1-55.58-13.38c-9.15-3.34-15.42-8.93-18.8-18.35Q228.82,438.46,216,405.52c-11.13-28.67-25-56-39.64-83.06-5.42-10-9.5-20.75-13.4-31.44-2.77-7.57.23-14.55,5.61-20.08a58.48,58.48,0,0,1,12-9.57c11.4-6.68,23.9-10.63,36.8-13.41,16.27-3.51,30.11,1.39,42.6,11.66,21.75,17.9,36.49,40.77,46.77,66.61,7.15,18,13.43,36.28,20.24,54.81,1.58-1.9,3.37-4,5.07-6.12q63.82-81,134.82-155.72A1660.94,1660.94,0,0,1,605.61,89.33C632.43,67,659.27,44.59,688.85,25.86c9.53-6,19.7-11,29.43-16.75A63.07,63.07,0,0,1,758,.4c25.75,2.82,51.49,5.8,77.19,9.1,3.48.45,6.66,3.16,10,4.82Z"/><path class="cls-3" d="M245.51,572.06c5,1.16,10.74,1.45,11.95,6.83.74,3.31-.72,8.11-2.92,10.86-3.93,4.92-9.07,1.51-14.4,0Z"/><path class="cls-4" d="M507.23,510.47c6.48-9.45,11.39-10.54,19.82-3.9a148.54,148.54,0,0,1,15.84,14.35c7.54,7.94,6.94,12.63-2,20.08Z"/><path class="cls-5" d="M62.83,216.45c3.17.89,6.52,1.42,9.5,2.75,8.3,3.72,16.56,7.56,24.61,11.79,3.24,1.7,4.89,4.79,3.39,8.88s-4.39,6-8.48,5.16a91.62,91.62,0,0,1-34.91-15c-2.79-2-3.56-5-2-8.44S58.92,216.46,62.83,216.45Z"/><path class="cls-4" d="M449.56,122.17c-5.29-.15-9-4.33-7.58-8.43,1.24-3.67,2.95-7.58,5.6-10.23,1.71-1.72,5.7-2.28,8.31-1.72,3.48.75,4.82,4.38,3.52,7.58A57.37,57.37,0,0,1,453,120.29C452.23,121.44,450.28,121.8,449.56,122.17Z"/><path class="cls-6" d="M462.63,94.28c-3.14-.56-5.23-2.46-5.12-6.3.14-4.9,4.86-10.84,8.6-10.83a5.92,5.92,0,0,1,5.83,6.6C471.64,88.81,466.94,94.4,462.63,94.28Z"/><path class="cls-7" d="M104.77,147c4.52,0,15.07,8.57,16.08,13,1,4.14-4.31,9.41-7.9,7.3a57.61,57.61,0,0,1-13.72-11C96.05,152.72,99.85,147,104.77,147Z"/><path class="cls-6" d="M372.42,56.11c-1.64,10.15-3.06,20.33-5.07,30.4a10.88,10.88,0,0,1-4.58,6.58c-3.77,2.15-8.11-.94-7.9-5.86.38-8.76,1.43-17.5,2.43-26.23a65.25,65.25,0,0,1,2.18-10.2c1-3.52,2.7-6.65,7.17-6s5.24,4,5.2,7.76c0,1.17,0,2.33,0,3.49Z"/><path class="cls-6" d="M179.32,84.44c1.22-1.42,2.26-3.6,3.91-4.28s4.87-.69,5.81.39a100.13,100.13,0,0,1,20.67,37c.42,1.43-1.52,4.5-3.12,5.33s-4.37.22-6.18-.67c-1.64-.81-3-2.69-3.94-4.39q-7.56-13.17-14.81-26.51C180.66,89.44,180.26,87.26,179.32,84.44Z"/><path class="cls-5" d="M172.27,145.08c-.78,1-1.62,3.15-3.13,3.84-1.67.77-4.52,1.07-5.85.13a48,48,0,0,1-9.08-8.41c-5.56-6.6-11-13.33-16-20.38a9.55,9.55,0,0,1-1-7.7c1.2-3.18,4.72-4.85,7.78-2.29a114.56,114.56,0,0,1,26.63,31.94A13.51,13.51,0,0,1,172.27,145.08Z"/><path class="cls-8" d="M398.23,97.3c4.89-13,9.39-25.4,14.25-37.64,1.09-2.77,4.08-4.66,6.91-2.72,2,1.34,4.44,4.7,3.95,6.35q-5.5,18.72-12.39,37c-.63,1.66-4.65,3.24-6.72,2.85S400.66,99.83,398.23,97.3Z"/></g></g></svg>