<svg xmlns="http://www.w3.org/2000/svg" viewBox="0 0 364.3 194.99"><defs><style>.cls-1,.cls-3{fill:#007dc5;}.cls-1{fill-rule:evenodd;}.cls-2{fill:#231f20;}</style></defs><g id="Layer_2" data-name="Layer 2"><g id="Layer_1-2" data-name="Layer 1"><path class="cls-1" d="M0,143.14H33.68c2.48-6,12.14-39.32,13.83-41.37l12.84,42,40,0L114,102.1c1.64-5.06,13.32-40.38,13.42-42.29l-34.3,0L78,100.55,66.52,62.22c-.4-1.31-.84-5-2.24-5h-35c-1.35,0-3.34,7.73-4.11,10L21.52,78.2C19.75,83.5.31,140.6,0,143.14Zm208.23,2.47,35.06,0c1.06-2.43,2.26-7.76,3-10.74,1-3.73,1.92-7.24,3-10.91,1.25-4.38,17.42-63.4,17.62-65.61l-35,0-23.65,87.24Zm130.37,1.44,8-24.69-50.77-.06c.17-2,11-36.69,11.71-37.75l51.5,0,5.3-23.67c-22.33.28-44.76,0-67,0-13.53,0-13.83-1.55-19.08,14.1-2.77,8.27-5.58,17.06-8.1,25.43s-5.46,16.68-8.06,25.15c-3.41,11.12-.83,19.19,10.57,20.4,9.67,1,22.65.48,32.7.66,11,.2,22.33.6,33.28.49ZM122.58,121l-8.3,22.13c3.75.38,55.23.11,60.49.11,4.86,0,9.38.57,13.46-1.51a23.06,23.06,0,0,0,8.12-7.2c6.23-8.39,11.21-24.28,7.66-35.51-1.23-3.89-4.51-5.46-9.34-5.93-4.6-.45-10.12-.34-14.8-.43-4.9-.08-10.2.71-12.44-2.64-2.55-3.84-.79-8.92,2.66-10.18,2.69-1,37.79.08,45.15-.48.69-1.2,5.11-18.81,5-20.21-20.22.25-40.56-.08-60.8,0-10.56,0-15.88,4.11-19.92,10.55-4.46,7.11-11.8,27.82-3.95,34.68,3,2.6,8.75,2,13.3,2h15.31c5.63,0,9.09-.17,10.23,5.15,1,4.8-1.49,9.26-5.83,9.49-4.82.26-10.43,0-15.33,0-10.22,0-20.46,0-30.68,0Z"/><path class="cls-2" d="M17.94,194.44v-32.5h4.31v32.5ZM30,184l4-.36a8.93,8.93,0,0,0,1.34,4,7.33,7.33,0,0,0,3.27,2.55,12.39,12.39,0,0,0,5,1,11.85,11.85,0,0,0,4.34-.74,5.94,5.94,0,0,0,2.8-2,4.63,4.63,0,0,0,.93-2.78,4.25,4.25,0,0,0-.89-2.67,6.63,6.63,0,0,0-2.93-1.91q-1.3-.5-5.78-1.58a29.52,29.52,0,0,1-6.28-2,8.76,8.76,0,0,1-3.45-3,7.38,7.38,0,0,1-1.15-4,8.27,8.27,0,0,1,1.4-4.61,8.62,8.62,0,0,1,4.08-3.25,15.47,15.47,0,0,1,6-1.11,16.2,16.2,0,0,1,6.37,1.16A9.1,9.1,0,0,1,53.3,166a9.76,9.76,0,0,1,1.59,5.12l-4.13.32a6.67,6.67,0,0,0-2.24-4.65,8.77,8.77,0,0,0-5.67-1.57c-2.6,0-4.5.47-5.69,1.43a4.29,4.29,0,0,0-1.79,3.45A3.73,3.73,0,0,0,36.64,173c.83.75,3,1.53,6.48,2.32a43,43,0,0,1,7.2,2.07,9.84,9.84,0,0,1,4.18,3.31,8,8,0,0,1,1.35,4.6,8.76,8.76,0,0,1-1.48,4.88,9.84,9.84,0,0,1-4.26,3.57A14.87,14.87,0,0,1,43.85,195a18.55,18.55,0,0,1-7.38-1.29,10.27,10.27,0,0,1-4.67-3.86A11,11,0,0,1,30,184Zm32-5.38c0-5.38,1.46-9.61,4.36-12.66a14.78,14.78,0,0,1,11.22-4.56,15.58,15.58,0,0,1,8.11,2.14,14,14,0,0,1,5.51,6,19.28,19.28,0,0,1,1.9,8.7,19,19,0,0,1-2,8.84,13.55,13.55,0,0,1-5.65,5.9,16.14,16.14,0,0,1-7.9,2,15.4,15.4,0,0,1-8.21-2.22,14.26,14.26,0,0,1-5.47-6A18.31,18.31,0,0,1,62,178.62Zm4.45.08q0,5.87,3.16,9.24a11,11,0,0,0,15.91,0q3.14-3.41,3.13-9.67a16.53,16.53,0,0,0-1.34-6.92,10.29,10.29,0,0,0-3.92-4.58,10.66,10.66,0,0,0-5.79-1.62,11,11,0,0,0-7.86,3.13q-3.28,3.13-3.29,10.45Zm44.6,8.21,3.81-.32a6.68,6.68,0,0,0,1.86,3.91,5.14,5.14,0,0,0,3.53,1.22,6,6,0,0,0,3.23-.85,6.69,6.69,0,0,0,2.27-2.25,13.63,13.63,0,0,0,1.48-3.81,19.94,19.94,0,0,0,.59-4.88c0-.17,0-.44,0-.8a9,9,0,0,1-3.26,3.09,8.76,8.76,0,0,1-4.48,1.19,9.06,9.06,0,0,1-6.82-2.93,10.71,10.71,0,0,1-2.78-7.71,11,11,0,0,1,2.91-8,9.72,9.72,0,0,1,7.3-3,10.38,10.38,0,0,1,5.78,1.71,10.68,10.68,0,0,1,4,4.87c.9,2.1,1.36,5.15,1.36,9.14a29.65,29.65,0,0,1-1.35,9.92,11.65,11.65,0,0,1-4,5.62,10.31,10.31,0,0,1-6.25,1.93,9,9,0,0,1-6.22-2.12,9.14,9.14,0,0,1-2.9-6Zm16.3-14.34a7.83,7.83,0,0,0-1.82-5.44,5.68,5.68,0,0,0-4.39-2,6.07,6.07,0,0,0-4.64,2.16,8.09,8.09,0,0,0-2,5.62,7,7,0,0,0,1.85,5,6.12,6.12,0,0,0,4.62,1.94,5.88,5.88,0,0,0,4.55-1.94,7.59,7.59,0,0,0,1.78-5.36Zm8.36,5.83a29.84,29.84,0,0,1,1.18-9.28,11.53,11.53,0,0,1,3.53-5.43,9,9,0,0,1,5.87-1.89,9.65,9.65,0,0,1,4.59,1,8.63,8.63,0,0,1,3.25,3.05,16,16,0,0,1,2,4.82,32.06,32.06,0,0,1,.73,7.68,30.06,30.06,0,0,1-1.17,9.25,11.42,11.42,0,0,1-3.51,5.43,9,9,0,0,1-5.89,1.91,8.89,8.89,0,0,1-7.37-3.35q-3.21-4.08-3.21-13.24Zm4.08,0q0,8,1.87,10.66a5.37,5.37,0,0,0,9.25,0q1.88-2.65,1.87-10.65t-1.87-10.66a5.52,5.52,0,0,0-4.67-2.64,5.15,5.15,0,0,0-4.4,2.33q-2.06,3-2,11Zm21.17,0a29.84,29.84,0,0,1,1.18-9.28,11.51,11.51,0,0,1,3.52-5.43,9,9,0,0,1,5.88-1.89,9.71,9.71,0,0,1,4.59,1,8.78,8.78,0,0,1,3.25,3.05,16.3,16.3,0,0,1,2,4.82,32.06,32.06,0,0,1,.73,7.68,30.06,30.06,0,0,1-1.17,9.25,11.42,11.42,0,0,1-3.51,5.43,9,9,0,0,1-5.89,1.91,8.89,8.89,0,0,1-7.37-3.35c-2.15-2.72-3.21-7.13-3.21-13.24Zm4.08,0q0,8,1.87,10.66a5.37,5.37,0,0,0,9.25,0q1.88-2.65,1.87-10.65t-1.87-10.66a5.52,5.52,0,0,0-4.67-2.64,5.15,5.15,0,0,0-4.4,2.33q-2.06,3-2,11Zm36.15,16h-4V169a20.58,20.58,0,0,1-3.78,2.75,26.75,26.75,0,0,1-4.21,2.06V170a24,24,0,0,0,5.86-3.81,14.84,14.84,0,0,0,3.55-4.35h2.58v32.64Zm25.06-19v-4.54h4.54v4.54Zm0,19V189.9h4.54v4.54Zm44-3.81v3.81H248.68a7.06,7.06,0,0,1,.47-2.77,14.67,14.67,0,0,1,2.66-4.32,43.2,43.2,0,0,1,5.22-4.91,45,45,0,0,0,7.16-6.88,8.26,8.26,0,0,0,1.88-4.81,5.37,5.37,0,0,0-1.7-4,6.19,6.19,0,0,0-4.44-1.62,6.28,6.28,0,0,0-4.63,1.72,6.49,6.49,0,0,0-1.76,4.77l-4.08-.41a10.08,10.08,0,0,1,3.17-7A10.78,10.78,0,0,1,260,161.8a10.32,10.32,0,0,1,7.41,2.6,8.53,8.53,0,0,1,2.73,6.44,9.74,9.74,0,0,1-.8,3.83,14.78,14.78,0,0,1-2.65,4,65.51,65.51,0,0,1-6.15,5.72c-2.4,2-3.95,3.38-4.63,4.1a12.78,12.78,0,0,0-1.68,2.16Zm4.32-12.23a30.15,30.15,0,0,1,1.18-9.28,11.6,11.6,0,0,1,3.53-5.43,9,9,0,0,1,5.87-1.89,9.65,9.65,0,0,1,4.59,1A8.73,8.73,0,0,1,293,165.9a16.3,16.3,0,0,1,2,4.82,31.48,31.48,0,0,1,.74,7.68,30.06,30.06,0,0,1-1.17,9.25,11.5,11.5,0,0,1-3.51,5.43,9,9,0,0,1-5.9,1.91,8.92,8.92,0,0,1-7.37-3.35q-3.21-4.08-3.21-13.24Zm4.09,0q0,8,1.87,10.66a5.36,5.36,0,0,0,9.24,0q1.88-2.65,1.87-10.65t-1.87-10.66a5.52,5.52,0,0,0-4.66-2.64,5.14,5.14,0,0,0-4.4,2.33q-2.06,3-2.05,11Zm21.16,0a30.15,30.15,0,0,1,1.18-9.28,11.6,11.6,0,0,1,3.53-5.43,9,9,0,0,1,5.87-1.89,9.65,9.65,0,0,1,4.59,1,8.73,8.73,0,0,1,3.26,3.05,16.3,16.3,0,0,1,2,4.82,32,32,0,0,1,.74,7.68,30,30,0,0,1-1.18,9.25,11.35,11.35,0,0,1-3.51,5.43A9.89,9.89,0,0,1,303,191.64q-3.21-4.08-3.21-13.24Zm4.09,0q0,8,1.87,10.66a5.36,5.36,0,0,0,9.24,0q1.88-2.65,1.87-10.65T315,167.76a5.52,5.52,0,0,0-4.67-2.64,5.13,5.13,0,0,0-4.39,2.33q-2.06,3-2.05,11Zm27.31-1.6a7.48,7.48,0,0,1-3.68-2.59,6.82,6.82,0,0,1-1.2-4,7.94,7.94,0,0,1,2.54-6,10.69,10.69,0,0,1,13.62.06,8,8,0,0,1,2.59,6,6.6,6.6,0,0,1-1.18,3.93,7.39,7.39,0,0,1-3.59,2.59,8.3,8.3,0,0,1,6.09,8.33,9.34,9.34,0,0,1-2.95,7,12,12,0,0,1-15.49,0A9.47,9.47,0,0,1,325,185a8.5,8.5,0,0,1,1.61-5.3,8.05,8.05,0,0,1,4.58-2.92Zm-.79-6.78a5.1,5.1,0,0,0,1.47,3.78,5.26,5.26,0,0,0,3.86,1.47,5.12,5.12,0,0,0,3.78-1.46,4.79,4.79,0,0,0,1.47-3.56,5,5,0,0,0-1.51-3.7,5.12,5.12,0,0,0-3.78-1.5,5.19,5.19,0,0,0-3.8,1.47,4.75,4.75,0,0,0-1.49,3.5Zm-1.32,15a7.49,7.49,0,0,0,.79,3.31,5.61,5.61,0,0,0,2.41,2.46,7,7,0,0,0,3.44.88,6.42,6.42,0,0,0,4.73-1.84,6.3,6.3,0,0,0,1.84-4.67,6.4,6.4,0,0,0-1.9-4.77,6.53,6.53,0,0,0-4.8-1.89,6.34,6.34,0,0,0-6.51,6.52Z"/><path class="cls-3" d="M54.5,18.87H49.28V30.49a3.64,3.64,0,0,1-2.11,3.07A9.71,9.71,0,0,1,42,34.84l-1.73-3.48a3.15,3.15,0,0,0,1.16.23A3,3,0,0,0,43.2,31,1.94,1.94,0,0,0,44,29.33V18.87h-7V32.24a5.58,5.58,0,0,0,1.08,3.13,7.56,7.56,0,0,0,2.41,2.38L49.28,43A12.65,12.65,0,0,1,52,45.24a3.89,3.89,0,0,1,1.31,2.38,3.32,3.32,0,0,1-.78,1.86,8.09,8.09,0,0,1-2.12,1.91l-4.65-3.47c1.16-.71,1.74-1.48,1.74-2.33q0-.81-1.32-2a13.64,13.64,0,0,0-2.74-1.83L35.91,38a8.77,8.77,0,0,1-2.78-2.28,4.69,4.69,0,0,1-1.28-2.95V18.87H28.48l-2.62-4.65h26l2.62,4.65Zm25.15,0H73v24.4l-5.23-2.91V31.08H61.36a1,1,0,0,0-.83.41,1.64,1.64,0,0,0-.34,1v2A1,1,0,0,1,59,35.71c-1.08,0-2.22-.8-3.43-2.41a7.79,7.79,0,0,1-1.79-4.55,2.27,2.27,0,0,1,.65-1.64,2.19,2.19,0,0,1,1.67-.68H67.74V18.87H52.47l-2.62-4.65H77l2.61,4.65Zm57,0h-5.22V30.49a3.64,3.64,0,0,1-2.11,3.07,9.71,9.71,0,0,1-5.16,1.28l-1.73-3.48a3.15,3.15,0,0,0,1.16.23,3,3,0,0,0,1.76-.6,1.94,1.94,0,0,0,.84-1.66V18.87h-7V32.24a5.5,5.5,0,0,0,1.08,3.13,7.44,7.44,0,0,0,2.4,2.38L131.46,43a12.65,12.65,0,0,1,2.75,2.26,3.84,3.84,0,0,1,1.31,2.38,3.32,3.32,0,0,1-.78,1.86,8.09,8.09,0,0,1-2.12,1.91L128,47.92c1.16-.71,1.74-1.48,1.74-2.33q0-.81-1.32-2a13.64,13.64,0,0,0-2.74-1.83L118.1,38a8.69,8.69,0,0,1-2.79-2.28A4.69,4.69,0,0,1,114,32.81V18.87h-3.37l-2.61-4.65h26l2.62,4.65Zm19.64,0h-9.88v9.3a7.22,7.22,0,0,0,3.54.92q2.88,0,6.34-3.71V18.87Zm0,12a8.61,8.61,0,0,1-5.46,2q-2,0-4.88-2.62a5.69,5.69,0,0,1-1.4,2.89,5.1,5.1,0,0,1-2.78,1.41l8,8.13-2.1,1.75-6.79-7.56a34,34,0,0,1-3.51-4.56A7.79,7.79,0,0,1,136,28.17a1.81,1.81,0,0,1,.69-1.46,2.52,2.52,0,0,1,1.63-.58,5.45,5.45,0,0,1,2,.87c.58,0,.87-.39.87-1.16v-7h-6.56L132,14.22h33.58l2.61,4.65h-6.68v24.4l-5.22-3.49V30.84Zm68.56-12h-9.3v24.4l-5.22-2.91V32.24a4.19,4.19,0,0,1-2.32.57c-1.81,0-3.74-.87-5.81-2.61a7.5,7.5,0,0,1,1.45,4.29A7.67,7.67,0,0,1,202,39.32a5.91,5.91,0,0,1-4.95,2.2,11.16,11.16,0,0,1-7.39-3.1,24.69,24.69,0,0,1-6-8.22L185.39,29a15.44,15.44,0,0,0,4.15,5.52A8.35,8.35,0,0,0,195,36.71a5,5,0,0,0,3.71-1.56,5.23,5.23,0,0,0,1.53-3.79,3.94,3.94,0,0,0-1.16-2.9,14.09,14.09,0,0,1-6.11,1.91l-1.74-4.24a17.61,17.61,0,0,0,5.4-1.13,4.32,4.32,0,0,0,3.31-4.38,2.6,2.6,0,0,0-1-2.09,3.78,3.78,0,0,0-2.5-.82c-2.31,0-4.73,1.06-7.26,3.2l-2.61-3.78a11,11,0,0,1,7-2.91,10.43,10.43,0,0,1,6.69,2.63c2.12,1.76,3.18,3.59,3.18,5.51a5.92,5.92,0,0,1-2.62,4.94q1.69,1.15,5.52,1.16c1.38,0,2.73-.77,4.07-2.33V18.87h-3.48l-2.62-4.65h29.91l2.61,4.65H230.1v24.4l-5.22-3.49V18.87Zm34.79,0h-6.1v7H244a2.71,2.71,0,0,0-2.05.94,3.27,3.27,0,0,0-.85,2.25,1.8,1.8,0,0,0,.27,1c.18.31.38.47.6.47a15.52,15.52,0,0,0,3.48-.59,16.07,16.07,0,0,1,3.49-.57q1.8,0,3.94,2.44A7.08,7.08,0,0,1,255,36.3a7,7,0,0,1-2.46,5.18,11.68,11.68,0,0,1-6.25,3l3.78,6.39-2.62,1.45L244.57,45a8.57,8.57,0,0,1-4.92-1.38,3.93,3.93,0,0,1-2.05-3.27,2.65,2.65,0,0,1,.68-1.84,2.11,2.11,0,0,1,1.65-.77,4.3,4.3,0,0,1,3.48,2,10.15,10.15,0,0,0,5.21-1.36A4.06,4.06,0,0,0,251,34.84c0-.57-.2-.87-.59-.87a8.14,8.14,0,0,0-2.43.58,7.94,7.94,0,0,1-2.5.59q-2.82,0-5.47-3a9.18,9.18,0,0,1-2.66-6,4.05,4.05,0,0,1,1.38-3.06A4.58,4.58,0,0,1,242,21.78h6.38V18.87H234.75l-2.61-4.65h24.92l2.61,4.65ZM256.14,7.2l-1.8.29q-1-3.13-3.43-3.14a2.38,2.38,0,0,0-1.93.9,3.28,3.28,0,0,0-.74,2.12,7,7,0,0,0,.87,3.26,24.34,24.34,0,0,0,2.38,3.59h-2.33c-2.7-3.37-4.06-6.36-4.06-9a5.25,5.25,0,0,1,1.41-3.72A4.52,4.52,0,0,1,249.93,0a5,5,0,0,1,3.9,1.79,12.06,12.06,0,0,1,2.31,5.41Zm56.21,11.67h-9.87v9.3a7.19,7.19,0,0,0,3.54.92c1.91,0,4-1.24,6.33-3.71V18.87Zm0,12a8.57,8.57,0,0,1-5.46,2q-2,0-4.87-2.62a5.69,5.69,0,0,1-1.4,2.89,5.16,5.16,0,0,1-2.79,1.41l8,8.13-2.09,1.75L297,36.87a33.35,33.35,0,0,1-3.52-4.56A7.88,7.88,0,0,1,292,28.17a1.82,1.82,0,0,1,.7-1.46,2.49,2.49,0,0,1,1.62-.58,5.47,5.47,0,0,1,2,.87c.58,0,.87-.39.87-1.16v-7h-6.56l-2.62-4.65h33.57l2.62,4.65h-6.68v24.4l-5.23-3.49V30.84Zm26.08-12h-6.68v24.4l-5.22-3.49V18.87h-4.3l-2.62-4.65h7.79a13.39,13.39,0,0,0-2.23-5.48,4.74,4.74,0,0,0-3.88-2.36,3.67,3.67,0,0,0-2.85,1.28,4.52,4.52,0,0,0-1.15,3.09,8.66,8.66,0,0,0,.53,2.32h-2.91a8.21,8.21,0,0,1-1.34-4.65,6.46,6.46,0,0,1,1.72-4.51A5.55,5.55,0,0,1,319.55,2q3.65,0,6.58,3.43A17.88,17.88,0,0,1,330,14.22h5.81l2.61,4.65Z"/></g></g></svg>